<?xml version="1.0" encoding="UTF-8"?>
<!DOCTYPE svg PUBLIC "-//W3C//DTD SVG 1.1//EN" "http://www.w3.org/Graphics/SVG/1.1/DTD/svg11.dtd">
<!-- Creator: CorelDRAW 2019 (64 Bit) -->
<svg xmlns="http://www.w3.org/2000/svg" xml:space="preserve" width="165.58mm" height="158.794mm" version="1.1" style="shape-rendering:geometricPrecision; text-rendering:geometricPrecision; image-rendering:optimizeQuality; fill-rule:evenodd; clip-rule:evenodd"
viewBox="0 0 16007.83 15351.78"
 xmlns:xlink="http://www.w3.org/1999/xlink">
 <defs>
  <style type="text/css">
   <![CDATA[
    .str3 {stroke:white;stroke-width:341.06;stroke-linecap:round;stroke-linejoin:round;stroke-miterlimit:2.61313;stroke-opacity:0.341176}
    .str6 {stroke:white;stroke-width:341.06;stroke-linecap:round;stroke-linejoin:round;stroke-miterlimit:2.61313;stroke-opacity:0.349020}
    .str7 {stroke:white;stroke-width:341.06;stroke-linecap:round;stroke-linejoin:round;stroke-miterlimit:2.61313;stroke-opacity:0.439216}
    .str4 {stroke:white;stroke-width:341.06;stroke-linecap:round;stroke-linejoin:round;stroke-miterlimit:2.61313;stroke-opacity:0.470588}
    .str2 {stroke:white;stroke-width:341.06;stroke-linecap:round;stroke-linejoin:round;stroke-miterlimit:2.61313;stroke-opacity:0.549020}
    .str1 {stroke:white;stroke-width:341.06;stroke-linecap:round;stroke-linejoin:round;stroke-miterlimit:2.61313;stroke-opacity:0.588235}
    .str5 {stroke:white;stroke-width:341.06;stroke-linecap:round;stroke-linejoin:round;stroke-miterlimit:2.61313;stroke-opacity:0.921569}
    .str0 {stroke:white;stroke-width:341.06;stroke-linecap:round;stroke-linejoin:round;stroke-miterlimit:2.61313}
    .fil0 {fill:#D99262;fill-rule:nonzero}
    .fil4 {fill:#D99262;fill-rule:nonzero;fill-opacity:0.341176}
    .fil7 {fill:#D99262;fill-rule:nonzero;fill-opacity:0.349020}
    .fil8 {fill:#D99262;fill-rule:nonzero;fill-opacity:0.439216}
    .fil5 {fill:#D99262;fill-rule:nonzero;fill-opacity:0.470588}
    .fil3 {fill:#D99262;fill-rule:nonzero;fill-opacity:0.549020}
    .fil2 {fill:#D99262;fill-rule:nonzero;fill-opacity:0.588235}
    .fil6 {fill:#D99262;fill-rule:nonzero;fill-opacity:0.921569}
    .fil1 {fill:#D99262;fill-rule:nonzero}
   ]]>
  </style>
 </defs>
 <g id="Camada_x0020_1">
  <metadata id="CorelCorpID_0Corel-Layer"/>
  <polygon class="fil0 str0" points="3966.45,8613.41 4159.21,10608.7 6420.3,12097.18 6309.41,10041.72 "/>
  <polygon class="fil1 str0" points="6339.65,10649.31 6987.03,9813.41 6616.82,9681.75 6301.53,10033.75 "/>
  <polygon class="fil0 str0" points="5678.44,3830.91 4281.94,5062.42 4544.88,6083.44 6170.19,5732.39 7132.39,4224.09 6235.2,3639 "/>
  <polygon class="fil0 str0" points="5849.09,4656.62 8295.02,6023.76 7903.93,7724.45 5932.86,6629.69 "/>
  <polygon class="fil0 str0" points="5711.72,8403.48 5828.56,10478.9 6597.46,9778.33 7681.63,6587.32 "/>
  <polygon class="fil1 str0" points="5711.72,8403.48 5828.56,10478.9 6597.46,9778.33 7663.71,6642.59 "/>
  <polygon class="fil0 str0" points="4344.19,12524.6 4159.21,10608.7 6420.3,12097.18 6542.63,13991.03 "/>
  <polygon class="fil1 str0" points="4344.64,12524.84 4159.21,10608.7 6420.3,12097.18 6542.63,13991.03 "/>
  <polygon class="fil0 str0" points="6251.51,10926.12 5529.07,13323.65 7861.98,14888.55 8668.16,12468.33 "/>
  <polygon class="fil0 str0" points="2892.37,8127.02 3808.99,7708.15 3529.73,8606.63 "/>
  <polygon class="fil0 str0" points="1772.03,7275.74 3966.45,8613.41 4159.21,10608.7 2067.03,9227.1 "/>
  <polygon class="fil0 str0" points="4669.73,4720.44 4794.29,6824.35 2785.54,8623.91 2571.92,6570.33 "/>
  <polygon class="fil1 str0" points="4669.73,4720.44 4794.29,6824.35 2785.54,8623.91 2571.92,6570.33 "/>
  <polygon class="fil0 str0" points="5711.72,8403.48 7829.87,6490.1 5346.66,5099.72 3248.87,6951 "/>
  <polygon class="fil2 str1" points="7861.98,14888.55 8668.16,12468.33 10448.5,11489.29 9679.39,13798.32 "/>
  <polygon class="fil1 str0" points="7861.98,14888.55 8668.16,12468.33 10448.5,11489.29 9679.39,13798.32 "/>
  <polygon class="fil0 str0" points="11310.33,12816.95 12117.64,10564.97 10448.5,11489.29 9679.39,13798.32 "/>
  <polygon class="fil1 str0" points="11310.33,12816.95 12117.64,10564.97 10448.5,11489.29 9679.39,13798.32 "/>
  <polygon class="fil0 str0" points="10448.5,11489.29 12120.31,10563.49 10582.17,9662.59 "/>
  <polygon class="fil1 str0" points="10448.5,11489.29 12120.31,10563.49 10582.17,9662.59 "/>
  <polygon class="fil0 str0" points="12636.56,12019.02 13438.22,9845.2 12117.64,10564.97 11310.33,12816.95 "/>
  <polygon class="fil0 str0" points="12636.56,12019.02 13438.22,9845.2 12117.64,10564.97 11310.33,12816.95 "/>
  <polygon class="fil0 str0" points="12237.1,10631.88 12849.87,8907.85 11337.99,8819.01 10979.47,9895.07 "/>
  <polygon class="fil1 str0" points="12237.1,10631.88 12849.87,8907.85 11337.99,8819.01 10979.47,9895.07 "/>
  <polygon class="fil0 str0" points="11241.52,10050.38 11690.72,8701.68 11337.99,8819.01 10857.44,10261.58 "/>
  <polygon class="fil1 str0" points="11241.52,10050.38 11690.72,8701.68 11337.99,8819.01 10857.44,10261.58 "/>
  <polygon class="fil0 str0" points="9602.28,9663.74 8668.16,12468.33 10448.5,11489.29 11337.99,8819.01 "/>
  <polygon class="fil1 str0" points="9602.28,9663.74 8668.16,12468.33 10448.5,11489.29 11337.99,8819.01 "/>
  <polygon class="fil0 str0" points="10562.25,6784.63 9602.28,9663.74 11337.99,8819.01 12255.67,6069.64 "/>
  <polygon class="fil1 str0" points="10562.25,6784.63 9602.28,9663.74 11337.99,8819.01 12255.67,6069.64 "/>
  <polygon class="fil0 str0" points="5678.44,3830.91 5555.62,1734.4 7800.66,2935.61 7177.61,4671.93 "/>
  <polygon class="fil0 str0" points="11342.99,4315.23 11284.85,5500.43 10444.78,5353.37 10583.28,5074.92 "/>
  <polygon class="fil1 str0" points="11342.99,4315.23 11284.85,5500.43 10444.78,5353.37 10583.28,5074.92 "/>
  <polygon class="fil0 str0" points="9830.01,3092.53 9442.81,2883.88 9540.92,3347.72 "/>
  <polygon class="fil0 str0" points="8489.77,1927.94 9634.18,1318.82 9540.92,3347.72 9445.08,3512.69 7719.44,4976.14 7800.66,2935.61 "/>
  <polygon class="fil0 str0" points="9512.56,3547.32 9540.92,3347.72 9830.01,3092.53 9776.17,4240.7 9174.57,3670.77 "/>
  <polygon class="fil1 str0" points="9512.56,3547.32 9540.92,3347.72 9830.01,3092.53 9776.17,4240.7 9174.57,3670.77 "/>
  <polygon class="fil0 str0" points="9540.92,3347.72 11342.99,4315.23 10574.35,5083.89 8803.05,4071.86 9174.57,3670.77 "/>
  <polygon class="fil0 str0" points="10261.41,4252.32 10205.16,5452.54 9423.59,4788.85 "/>
  <polygon class="fil0 str0" points="5849.09,4656.62 8295.02,6023.76 10261.41,4252.32 7800.66,2935.61 "/>
  <polygon class="fil0 str0" points="7942.8,5313.74 10562.25,6784.63 12255.67,6069.64 9827.16,4645.84 "/>
  <polygon class="fil0 str0" points="12237.1,10631.88 13544.63,9914.98 14476.15,7394.35 14092.17,7548.66 12849.87,8907.85 "/>
  <polygon class="fil1 str0" points="12237.1,10631.88 13544.63,9914.98 14476.15,7394.35 14092.17,7548.66 12849.87,8907.85 "/>
  <polygon class="fil0 str0" points="11779.43,5063.58 14231.68,6299.12 14553.9,5319.19 12156.27,4028.32 "/>
  <polygon class="fil0 str0" points="14920.4,7269.8 15837.26,4777.64 14553.9,5319.19 13608.52,7906.73 "/>
  <polygon class="fil1 str0" points="14920.4,7269.8 15837.26,4777.64 14553.9,5319.19 13608.52,7906.73 "/>
  <polygon class="fil0 str0" points="12494.74,4527.22 14918.17,5831.96 13150.72,6594.4 10722.17,5170.56 "/>
  <polygon class="fil0 str0" points="13506.9,3551.84 15837.26,4777.64 14553.9,5319.19 12156.27,4028.32 "/>
  <polygon class="fil0 str0" points="14047.94,8215.58 14918.17,5831.96 13150.72,6594.4 12182.67,9293.32 "/>
  <polygon class="fil1 str0" points="14047.94,8215.58 14918.17,5831.96 13150.72,6594.4 12182.67,9293.32 "/>
  <polygon class="fil0 str0" points="11337.99,8819.01 12255.67,6069.64 13150.72,6594.4 12182.67,9293.32 "/>
  <polygon class="fil1 str0" points="11337.99,8819.01 12255.67,6069.64 13150.72,6594.4 12182.67,9293.32 "/>
  <polygon class="fil0 str0" points="7942.8,5313.74 7079.39,8178.87 9602.28,9663.74 10562.25,6784.63 "/>
  <polygon class="fil0 str0" points="7079.39,8178.87 6251.51,10926.12 8668.16,12468.33 9602.28,9663.74 "/>
  <polygon class="fil0 str0" points="2373.13,11206.54 4344.64,12524.84 4159.21,10608.7 2067.03,9227.1 "/>
  <polygon class="fil0 str0" points="210.13,5191.36 2571.92,6570.33 4669.73,4720.44 2345.25,3418.01 "/>
  <polygon class="fil0 str0" points="210.13,5191.36 532.23,7250.33 2785.54,8623.91 2571.92,6570.33 "/>
  <polygon class="fil0 str0" points="7451.2,170.55 5555.62,1734.4 7800.66,2935.61 9634.18,1318.82 "/>
  <g id="_2497289366064">
   <polygon class="fil0 str0" points="5549.67,1745.46 5561.56,1723.23 7806.65,2924.57 7794.79,2946.76 "/>
  </g>
  <g id="_2497289369040">
   <polygon class="fil0 str0" points="9634.18,1318.82 9634.18,1318.83 "/>
   <polygon class="fil3 str2" points="7451.4,171.46 7438.1,182.62 9620.73,1330.71 9632.45,1320.55 9633.39,1319.64 "/>
  </g>
  <g id="_2497289369648">
   <polygon class="fil0 str0" points="7809.03,2945.12 7792.39,2926.23 9622.44,1312.64 9634.18,1318.83 9633.4,1336.51 "/>
  </g>
  <polygon class="fil4 str3" points="6341.05,4235.35 5664.48,3855.81 5692.41,3806.01 6368.99,4185.55 "/>
  <g id="_2497289370576">
   <polygon class="fil0 str0" points="9601.07,9667.49 7079.39,8178.87 7086.98,8153.71 9610.6,9639.81 11348.04,8788.79 11337.99,8819.01 "/>
  </g>
  <g id="_2497289371248">
   <polygon class="fil0 str0" points="9591.8,9695.04 7070.46,8208.54 7079.39,8178.87 9601.07,9667.49 11337.99,8819.01 11326.7,8852.69 "/>
  </g>
  <g id="_2497289371792">
   <polygon class="fil0 str0" points="8668.16,12468.33 6251.51,10926.12 6259.64,10899.22 8677.2,12441.88 10459.09,11457.54 10447.3,11492.86 "/>
  </g>
  <g id="_2497289371536">
   <polygon class="fil0 str0" points="8659.8,12493.49 6243.89,10951.73 6251.51,10926.12 8668.16,12468.33 10450.12,11484.39 10438.34,11519.7 "/>
  </g>
  <g id="_2497289373648">
   <polygon class="fil0 str0" points="8661.31,12436.58 9575.93,9689.74 9607.8,9700.38 8693.12,12447.18 "/>
  </g>
  <g id="_2497289372080">
   <polygon class="fil0 str0" points="7937.82,5330.18 7942.9,5313.49 7963.8,5306.26 10570.48,6769.97 10554.03,6799.24 "/>
  </g>
  <g id="_2497289373488">
   <polygon class="fil0 str0" points="7086.98,8153.71 7937.82,5330.18 7952.81,5338.68 7103.59,8163.77 "/>
  </g>
  <g id="_2497289373392">
   <polygon class="fil0 str0" points="9598.72,9635.85 10558.55,6766.03 10582.42,6774.01 9622.54,9643.83 "/>
  </g>
  <g id="_2497289374640">
   <polygon class="fil0 str0" points="10553.4,6807.76 10543.53,6784.59 12242.12,6061.69 12255.73,6069.77 12250.37,6085.64 "/>
  </g>
  <g id="_2497289374800">
   <polygon class="fil0 str0" points="11337.99,8819.01 12255.67,6069.64 12266.86,6076.2 11349.21,8825.29 "/>
  </g>
  <g id="_2497289374352">
   <polygon class="fil0 str0" points="7851.08,14881.27 8647.83,12485.86 8659.8,12493.53 8675.76,12484.77 7878.57,14878.59 7862.09,14888.6 "/>
  </g>
  <g id="_2497289376880">
   <polygon class="fil0 str0" points="7978.16,5314.33 7963.8,5306.26 9827.16,4645.84 9841.25,4654.08 "/>
  </g>
  <g id="_2497289377424">
   <polygon class="fil5 str4" points="9825.7,4659.55 9841.25,4654.08 12242.12,6061.69 12227.69,6067.8 "/>
  </g>
  <g id="_2497289377968">
   <polygon class="fil6 str5" points="2067.03,9227.1 2062.35,9196.15 5992.24,11786.7 5985.03,11810.62 "/>
  </g>
  <g id="_2497289376176">
   <polygon class="fil1 str0" points="2067.03,9227.1 2072.61,9263.17 4162.27,10641.09 4158.99,10606.52 "/>
   <polygon class="fil7 str6" points="5985.03,11810.62 4158.99,10606.52 4162.27,10641.09 5976.89,11837.61 "/>
  </g>
  <g id="_2497289379088">
   <polygon class="fil0 str0" points="4317.55,12506.76 4014.94,9369.89 4041.09,9386.28 4344.64,12524.84 "/>
  </g>
  <g id="_2497289379376">
   <polygon class="fil1 str0" points="4040.3,9385.44 4158.2,10605.98 4185.22,10623.86 4067.19,9401.83 "/>
   <polygon class="fil7 str6" points="4344.19,12524.6 4370.81,12542.38 4185.22,10623.86 4158.2,10605.98 "/>
  </g>
  <g id="_2497289380592">
   <polygon class="fil0 str0" points="2373.13,11206.54 1893.67,8080.22 1912.41,8091.61 2388.63,11196.72 5534.16,13306.81 5531.24,13316.37 2372.73,11206.29 "/>
  </g>
  <g id="_2497289381104">
   <polygon class="fil0 str0" points="5529.07,13323.65 5532.96,13310.73 7866.14,14876.12 7861.98,14888.55 "/>
  </g>
  <g id="_2497289380528">
   <polygon class="fil0 str0" points="5816.03,10471.22 5698.8,8398.22 7505.13,6766.26 7497.93,6789.98 7490.89,6813.26 5724.65,8408.82 5840.57,10467.99 5828.35,10478.94 "/>
  </g>
  <g id="_2497289380816">
   <polygon class="fil0 str0" points="3236.14,6972.73 3248.87,6951 5708.75,8389.21 5699.78,8396.54 5699.64,8413.23 "/>
  </g>
  <g id="_2497289383632">
   <polygon class="fil0 str0" points="2773.01,8625.21 2558.73,6565.15 4661.41,4710.97 4678.03,4729.89 2585.1,6575.48 2798.07,8622.62 "/>
  </g>
  <g id="_2497289383216">
   <polygon class="fil0 str0" points="203.77,5202.23 216.44,5180.52 2591.44,6564.59 2578.79,6586.38 "/>
  </g>
  <g id="_2497289384016">
   <polygon class="fil0 str0" points="12166.87,9287.63 13137.33,6581.82 14911.54,5816.59 14924.79,5847.39 13164.04,6606.92 12198.47,9299.02 "/>
  </g>
  <g id="_2497289385744">
   <polygon class="fil0 str0" points="12258.4,6090.67 12275.33,6061.72 13159.73,6579.64 13142.77,6608.66 "/>
  </g>
  <g id="_2497289386288">
   <polygon class="fil3 str2" points="12494.74,4527.22 12500.71,4516.09 14461.53,5571.82 14457.38,5583.9 "/>
  </g>
  <g id="_2497289384752">
   <polygon class="fil0 str0" points="7879.36,14876.31 7886.76,14854.08 12646.01,11993.41 12636.91,12018.67 7878.57,14878.59 "/>
  </g>
  <g id="_2497289384944">
   <polygon class="fil0 str0" points="9647.03,13815.7 10405.88,11537.47 10450.12,11484.39 9679.39,13798.32 "/>
  </g>
  <g id="_2497289387248">
   <polygon class="fil8 str7" points="9679.39,13798.32 10450.12,11484.39 10480.81,11471.36 9721.64,13751.17 "/>
  </g>
  <g id="_2497289386960">
   <polygon class="fil0 str0" points="2905.69,12344.81 1196.05,14286.01 170.56,12386.02 1892.5,10429.17 "/>
   <polygon class="fil0 str0" points="5012.33,12877.31 3126.98,14760.12 1196.05,14286.01 2905.69,12344.81 "/>
   <polygon class="fil1 str0" points="5012.33,12877.31 3126.98,14760.12 1196.05,14286.01 2905.69,12344.81 "/>
   <polygon class="fil0 str0" points="4130.17,10999.81 5012.33,12877.31 2905.69,12344.81 1892.5,10429.17 "/>
  </g>
  <g id="_2497289388496">
   <polygon class="fil0 str0" points="11306.03,12765.88 9596.39,14707.13 8570.89,12807.15 10292.83,10850.29 "/>
   <polygon class="fil0 str0" points="13412.66,13298.44 11527.3,15181.25 9596.39,14707.13 11306.03,12765.88 "/>
   <polygon class="fil1 str0" points="13412.66,13298.44 11527.3,15181.25 9596.39,14707.13 11306.03,12765.88 "/>
   <polygon class="fil0 str0" points="12530.5,11420.89 13412.66,13298.44 11306.03,12765.88 10292.83,10850.29 "/>
  </g>
  <polygon class="fil0 str0" points="5698.8,8398.22 5815.63,10473.64 3428.3,9013.88 3229.6,6956.58 "/>
 </g>
</svg>
